<?xml version="1.0" encoding="UTF-8"?>
<svg width="32px" height="32px" viewBox="0 0 32 32" version="1.1" xmlns="http://www.w3.org/2000/svg">
    <title>Dexi Rocket</title>
    <g fill="#6366f1">
        <path d="M16.0007,5.80645c-0.0537,-1.935 -0.645,-3.72581 -1.6129,-5.16129c-0.2151,-0.32258 -0.7527,-0.32258 -0.9677,0c-0.9679,1.43548 -1.5593,3.22629 -1.6129,5.16129c-2.1505,0.96774 -3.4409,2.47312 -3.4409,4.19355c0,2.79569 3.4409,5.16129 7.6129,5.16129c4.172,0 7.6129,-2.3656 7.6129,-5.16129c0,-1.72043 -1.2904,-3.22581 -3.4409,-4.19355Zm-0.0007,7.74194c-3.0108,0 -5.4194,-1.72043 -5.4194,-3.87097c0,-1.07527 0.8602,-2.04301 2.2151,-2.68817c0.3226,-0.16129 0.5376,-0.48387 0.5376,-0.86022c0,-1.50537 0.4301,-2.90322 1.1828,-4.08602c0.0537,0.16129 0.1075,0.32258 0.1075,0.48387c0.2151,1.07527 1.1828,1.88172 2.3226,1.88172c1.1398,0 2.1075,-0.80645 2.3226,-1.88172c0.0538,-0.16129 0.1075,-0.32258 0.1075,-0.48387c0.7527,1.1828 1.1828,2.58065 1.1828,4.08602c0,0.37635 0.2151,0.69893 0.5376,0.86022c1.3548,0.64516 2.2151,1.6129 2.2151,2.68817c0,2.15054 -2.4086,3.87097 -5.4194,3.87097Z"/>
        <path d="M19.4409,21.2903l-2.3226,-2.3226c-0.2151,-0.2151 -0.5376,-0.2151 -0.7527,0l-2.3226,2.3226c-0.2151,0.2151 -0.2151,0.5376 0,0.7527l2.3226,2.3226c0.2151,0.2151 0.5376,0.2151 0.7527,0l2.3226,-2.3226c0.2151,-0.2151 0.2151,-0.5376 0,-0.7527Z"/>
        <path d="M13.9785,24.8817l-1.1828,-1.1828c-0.2151,-0.2151 -0.5376,-0.2151 -0.7527,0l-1.1828,1.1828c-0.2151,0.2151 -0.2151,0.5376 0,0.7527l1.1828,1.1828c0.2151,0.2151 0.5376,0.2151 0.7527,0l1.1828,-1.1828c0.2151,-0.2151 0.2151,-0.5376 0,-0.7527Z"/>
        <path d="M22.0108,24.8817l-1.1828,-1.1828c-0.2151,-0.2151 -0.5376,-0.2151 -0.7527,0l-1.1828,1.1828c-0.2151,0.2151 -0.2151,0.5376 0,0.7527l1.1828,1.1828c0.2151,0.2151 0.5376,0.2151 0.7527,0l1.1828,-1.1828c0.2151,-0.2151 0.2151,-0.5376 0,-0.7527Z"/>
    </g>
</svg>
